<?xml version="1.0" encoding="UTF-8"?>
<svg id="Layer_2" data-name="Layer 2" xmlns="http://www.w3.org/2000/svg" viewBox="0 0 205.51 212.4">
  <g id="Layer_1-2" data-name="Layer 1">
    <g>
      <path d="M162.67,144.13c-4.07-8.29-14.12-13.94-23.72-14.25-5.76-.42-10.99,1.51-16.52,2.18-8.96,1.32-12.9-5.04-16.5-12.95-5.12-11.96-14.51-24.81-28.02-28.15-15.33-4.57-31.44,6.15-33.6,21.78-3.32,18.06,16.75,35.35,33.73,27,7.22-3.58,12.41-12.1,11.5-19.92-.57-6.27-5.63-10.47-10.72-13.5-1.93-1.25-3.75-2.54-4.94-3.88-3.8-4.13-.03-7.35,4.84-6.4,12.56,2.5,19.45,15.87,17.19,27.96-1.44,9.69-5.8,18.35-12,25.93-2.61,2.98-5.74,6.77-9.84,7.05h-.16c-2.98.2-6.73-2.33-9.69-4.28-3.99-2.6-11.8-6.84-16.28-8.29-14.8-4.33-29.22-4.48-40.1,8.17-10.88,13.08-10.55,35.6,1.75,48.01,14.2,14.69,35.01,14.57,52.48,5.75,8.1-4.01,12.7-11.4,18.04-18.35,3.27-4.4,7.33-6.06,11.84-1.82,4.48,3.86,13.84,11.55,19.61,7.58,1.8-2.42-2.16-5.59-4.28-6.84-7.65-4.12-17.28-8.03-16.25-17.97.68-4.44,2.23-8.86,3.71-13.1,2.27-7.99,4.18-16.29,5.73-24.34,2.3-9.45,3.66-.23,3.72,3.6.47,12.35,3.26,33.2,15.97,42.97,11.65,10,29.54,8.24,39-4.71,6.39-7.97,8.55-20.51,3.52-29.21ZM56.77,186.88c-5.43,10.64-18.45,14.87-29.1,9.44-10.64-5.43-14.87-18.45-9.44-29.1,5.43-10.64,18.45-14.87,29.1-9.44,10.64,5.43,18.38,11.56,9.44,29.1ZM155.36,164.71c-4.48,8.8-15.25,12.29-24.05,7.8-8.8-4.49-15.39-16.83-10.9-25.63,4.48-8.8,18.35-10.71,27.14-6.22,8.8,4.49,12.29,15.25,7.8,24.05Z"/>
      <path d="M195.93,11.82c-14.2-14.68-35.01-14.57-52.49-5.75-8.1,4.01-12.7,11.4-18.04,18.35-3.27,4.39-7.33,6.06-11.84,1.82-4.48-3.86-13.84-11.55-19.61-7.58-1.79,2.42,2.16,5.59,4.28,6.84,7.65,4.12,17.28,8.03,16.24,17.97-.68,4.44-2.23,8.86-3.71,13.1-2.27,7.99-4.18,16.29-5.73,24.34-2.3,9.45-3.66.23-3.72-3.6-.47-12.35-3.26-33.2-15.97-42.97-11.65-10-29.54-8.23-39,4.71-6.39,7.97-8.55,20.51-3.52,29.21,4.07,8.29,14.12,13.94,23.72,14.25,5.76.42,10.99-1.51,16.52-2.18,8.96-1.32,12.9,5.04,16.5,12.95,5.12,11.96,14.51,24.81,28.02,28.15,15.33,4.57,31.44-6.15,33.6-21.78,3.32-18.06-16.75-35.35-33.73-27-7.21,3.58-12.41,12.1-11.5,19.92.57,6.27,5.63,10.47,10.72,13.5,1.93,1.25,3.75,2.54,4.94,3.88,3.8,4.13.03,7.35-4.84,6.4-12.56-2.5-19.45-15.87-17.19-27.96,1.44-9.69,5.8-18.35,12-25.93,2.61-2.98,5.74-6.78,9.84-7.05h.16c2.98-.2,6.73,2.33,9.69,4.28,3.99,2.6,11.8,6.84,16.28,8.29,14.8,4.33,29.22,4.48,40.1-8.17,10.88-13.08,10.55-35.6-1.75-48.01ZM87.1,64.22c-4.68,9.17-19.13,11.17-28.3,6.49-9.17-4.68-12.81-15.9-8.14-25.07,4.68-9.17,15.9-12.81,25.07-8.14,9.17,4.68,16.04,17.55,11.36,26.71ZM187.27,45.17c-5.43,10.64-18.45,14.87-29.1,9.44-10.64-5.43-18.38-11.56-9.44-29.1,5.43-10.64,18.45-14.87,29.1-9.44,10.64,5.43,14.87,18.45,9.44,29.1Z"/>
    </g>
  </g>
</svg>