<?xml version="1.0" encoding="UTF-8"?>
<svg id="Layer_2" data-name="Layer 2" xmlns="http://www.w3.org/2000/svg" viewBox="0 0 121.51 89.96">
  <defs>
    <style>
      .cls-1 {
        fill: #fff;
      }
    </style>
  </defs>
  <g id="Layer_1-2" data-name="Layer 1">
    <path class="cls-1" d="M119.46,39.82c-2.99-6.09-10.37-10.24-17.42-10.46-4.23-.31-8.07,1.11-12.13,1.6-6.58.97-9.48-3.7-12.12-9.51-3.76-8.79-10.65-18.22-20.58-20.67-11.26-3.35-23.09,4.52-24.68,15.99-2.44,13.26,12.3,25.96,24.77,19.83,5.3-2.63,9.11-8.89,8.44-14.63-.42-4.61-4.13-7.69-7.87-9.92-1.42-.92-2.75-1.87-3.63-2.85-2.79-3.04-.03-5.4,3.56-4.7,9.23,1.84,14.29,11.66,12.62,20.53-1.06,7.12-4.26,13.48-8.81,19.04-1.91,2.19-4.22,4.98-7.22,5.17h-.12c-2.19.14-4.94-1.71-7.11-3.14-2.93-1.91-8.67-5.02-11.96-6.09-10.87-3.18-21.46-3.29-29.45,6-7.99,9.6-7.74,26.15,1.28,35.26,10.43,10.78,25.71,10.7,38.54,4.22,5.95-2.94,9.32-8.37,13.25-13.48,2.4-3.23,5.38-4.45,8.69-1.34,3.29,2.84,10.16,8.48,14.4,5.57,1.32-1.78-1.59-4.1-3.14-5.02-5.62-3.03-12.69-5.9-11.93-13.2.5-3.26,1.64-6.51,2.73-9.62,1.67-5.87,3.07-11.97,4.2-17.88,1.69-6.94,2.69-.17,2.73,2.64.34,9.07,2.39,24.38,11.73,31.56,8.56,7.35,21.69,6.05,28.64-3.46,4.69-5.85,6.28-15.06,2.59-21.45ZM41.69,71.22c-3.99,7.82-13.55,10.92-21.37,6.94-7.82-3.99-10.92-13.55-6.93-21.37,3.99-7.81,13.55-10.92,21.37-6.93,7.82,3.99,13.5,8.49,6.93,21.37ZM114.1,54.94c-3.29,6.46-11.2,9.02-17.66,5.73-6.46-3.29-11.3-12.36-8.01-18.82,3.29-6.46,13.47-7.86,19.93-4.57,6.46,3.29,9.02,11.2,5.73,17.66Z"/>
  </g>
</svg>