<?xml version="1.0" encoding="UTF-8"?>
<svg id="Layer_2" data-name="Layer 2" xmlns="http://www.w3.org/2000/svg" viewBox="0 0 737.42 212.4">
  <rect width="100%" height="100%" fill="none"/>
  <defs>
    <style>
      .cls-1 {
        fill: currentColor;
      }
    </style>
  </defs>
  <g id="Layer_1-2" data-name="Layer 1">
    <g>
      <path class="cls-1" d="M257.49,110.94c4.31-6.65,14.32-20.82,17.02-23.96-4.31-.07-10.3.15-15.85,1.17-7.08,1.31-12.78,4.38-15.19,7.52.66,2.26,6.72,4.16,8.47,6.43-.58,2.78-5.7,7.38-8.62,7.38-2.05,0-3.36-2.92-3.36-6.14,0-8.62,8.25-15.7,19.94-18.48,4.46-1.1,12.56-2.05,17.9-2.12,1.75-2.26,3.21-3.94,3.87-3.94.73,0,1.46.29,2.7,1.24,1.24.95,1.83,1.9,2.05,2.56,2.99.07,6.72.51,9.5,1.1,3.58,1.46,8.62,4.16,9.79,5.48l-.37.37c-3.8-1.46-9.35-2.48-14.61-2.56-1.24,0-4.02-.07-7.09.07-4.6,5.77-8.76,11.98-14.1,19.87,2.56-.07,5.33-.07,8.11.07,5.41.15,10.88.58,13.95,1.39l-.44.51c-3,0-9.2,0-14.83.88-6.43.95-10.08,2.63-11.69,4.38-2.78,4.09-5.04,7.82-7.01,10.96-5.99,9.57-9.28,14.9-14.75,14.39-.44,1.02-.95,2.19-1.32,3.21l-1.17.51c.73-3.58,3.43-11.1,17.09-32.29Z"/>
      <path class="cls-1" d="M285.43,122.26c.75-2.19,1.76-4.31,3.03-6.35,1.27-2.04,2.76-3.97,4.49-5.77,1.73-1.8,3.57-3.37,5.51-4.71,1.95-1.34,3.96-2.4,6.03-3.18,2.07-.78,4.1-1.17,6.1-1.17,2.58,0,4.46.6,5.62,1.79,1.17,1.19,1.48,2.69.95,4.49-.68,2.34-2.69,4.67-6.03,7.01-3.34,2.34-7.88,4.67-13.62,7.01l-6.79,2.78-.07-1.24,6.5-2.78c3.94-1.7,7.3-3.72,10.08-6.06,2.78-2.34,4.58-4.7,5.41-7.08.44-1.27.51-2.34.22-3.21-.29-.88-1-1.31-2.12-1.31s-2.34.45-3.65,1.35c-1.32.9-2.63,2.09-3.94,3.58-1.32,1.49-2.57,3.2-3.76,5.15-1.19,1.95-2.26,3.96-3.21,6.03-.95,2.07-1.71,4.14-2.26,6.21-.56,2.07-.84,3.98-.84,5.73,0,2.19.45,3.81,1.35,4.86.9,1.05,2.25,1.57,4.05,1.57,1.31,0,2.8-.28,4.46-.84,1.66-.56,3.33-1.36,5.04-2.41,1.7-1.05,3.37-2.29,5-3.73,1.63-1.44,3.05-3.03,4.27-4.78l4.75-6.72,1.1.66-4.97,7.01c-1.41,2-3.03,3.79-4.86,5.37-1.83,1.58-3.76,2.93-5.81,4.05-2.05,1.12-4.14,1.98-6.28,2.59s-4.21.91-6.21.91c-3.51,0-6.16-.9-7.96-2.7-1.8-1.8-2.7-4.33-2.7-7.6,0-2.14.38-4.31,1.13-6.5Z"/>
      <path class="cls-1" d="M349.04,101.63c1.05.37,2.11.55,3.18.55.68,0,1.34-.11,1.97-.33.63-.22,1.29-.6,1.97-1.13l.95.29-5.7,13.66-8.84,2.85-3,6.87c-.93,2.09-1.95,4.04-3.07,5.84-1.12,1.8-2.33,3.35-3.62,4.64s-2.64,2.3-4.05,3.03-2.85,1.1-4.31,1.1c-2.24,0-3.98-.78-5.22-2.34-1.24-1.56-1.86-3.73-1.86-6.5,0-2.24.39-4.5,1.17-6.79.78-2.29,1.84-4.5,3.18-6.65,1.34-2.14,2.9-4.16,4.67-6.06,1.78-1.9,3.69-3.55,5.73-4.97,2.04-1.41,4.16-2.53,6.35-3.36,2.19-.83,4.33-1.24,6.43-1.24,1.66,0,3.01.18,4.05.55ZM341.85,103.89c-1.41,1.14-2.91,2.65-4.49,4.53-1.58,1.88-3.14,3.98-4.67,6.32-1.53,2.34-2.92,4.67-4.16,7.01-1.24,2.34-2.25,4.58-3.03,6.72-.78,2.14-1.17,3.97-1.17,5.48,0,1.02.19,1.8.58,2.34.39.54,1,.8,1.83.8,1.12,0,2.33-.54,3.62-1.61,1.29-1.07,2.65-2.63,4.09-4.67,1.44-2.04,2.92-4.54,4.46-7.49,1.53-2.95,3.08-6.27,4.64-9.97l.88-2.12c1.27-3.02,1.98-5.28,2.15-6.79.17-1.51-.21-2.26-1.13-2.26-.97,0-2.17.57-3.58,1.72ZM339.48,137.86c-.95-.8-1.6-1.91-1.94-3.32-.34-1.41-.37-3.07-.07-4.97.29-1.9.9-3.97,1.83-6.21l3.73-8.69,3.29-.73,5.11.73-4.67,10.96c-1.56,3.7-2.46,6.53-2.7,8.47-.24,1.95.27,2.92,1.53,2.92.49,0,1.1-.18,1.83-.55s1.57-.95,2.52-1.75c.95-.8,2.01-1.85,3.18-3.14s2.41-2.89,3.73-4.78l5.92-8.33,1.1.73-5.92,8.4c-2.63,3.75-5.17,6.6-7.63,8.55-2.46,1.95-4.83,2.92-7.12,2.92-1.51,0-2.74-.4-3.69-1.21Z"/>
      <path class="cls-1" d="M360.44,137.71c-.95-.8-1.6-1.91-1.94-3.32-.34-1.41-.37-3.07-.07-4.97s.9-3.97,1.83-6.21l3.73-8.69h8.4l-4.67,10.96c-1.56,3.7-2.46,6.53-2.7,8.47-.24,1.95.27,2.92,1.53,2.92.49,0,1.1-.18,1.83-.55s1.57-.95,2.52-1.75c.95-.8,2.01-1.85,3.18-3.14,1.17-1.29,2.41-2.88,3.73-4.78l5.92-8.33,1.1.73-5.92,8.4c-2.63,3.75-5.17,6.6-7.63,8.55-2.46,1.95-4.83,2.92-7.12,2.92-1.51,0-2.74-.4-3.69-1.21ZM363.69,102.54h20.82l-.22,1.24h-20.89l.29-1.24ZM363.98,114.52l4.67-11.25c.54-1.31,1.07-2.57,1.61-3.76.54-1.19,1.08-2.24,1.64-3.14.56-.9,1.13-1.63,1.72-2.19.58-.56,1.19-.84,1.83-.84.44,0,.84.08,1.21.26s.82.25,1.35.25c.24,0,.62-.1,1.13-.29.51-.19,1.06-.58,1.64-1.17l.8.29-9.2,21.84h-8.4Z"/>
      <path class="cls-1" d="M424.97,118.97l-4.53,6.57c-1.8,2.58-3.45,4.74-4.93,6.46-1.49,1.73-2.86,3.13-4.13,4.2-1.27,1.07-2.44,1.83-3.51,2.26-1.07.44-2.09.66-3.07.66-1.75,0-3.18-.65-4.27-1.94-1.1-1.29-1.64-3.15-1.64-5.59,0-.88.1-1.8.29-2.78.19-.97.52-2.16.99-3.54.46-1.39,1.11-3.05,1.94-5,.83-1.95,1.87-4.31,3.14-7.08l1.32-3c1.02-2.34,1.62-4.05,1.79-5.15.17-1.1-.09-1.64-.77-1.64-.83,0-2.01.87-3.54,2.59-1.53,1.73-3.74,4.69-6.61,8.87l-5.62,8.25c-1.02,1.51-1.94,2.91-2.74,4.2-.8,1.29-1.5,2.56-2.08,3.8-.58,1.24-1.1,2.5-1.53,3.76-.44,1.27-.83,2.65-1.17,4.16-1.51,0-2.69-.58-3.54-1.75-.85-1.17-1.28-2.78-1.28-4.82,0-.88.06-1.7.18-2.48.12-.78.37-1.78.73-2.99.37-1.22.9-2.8,1.61-4.75.71-1.95,1.67-4.48,2.89-7.6h8.4l-4.09,9.57h.15l7.01-10.15c1.56-2.24,2.93-4.15,4.13-5.73,1.19-1.58,2.28-2.88,3.25-3.91.97-1.02,1.9-1.76,2.78-2.23.88-.46,1.78-.69,2.7-.69,1.61,0,2.9.67,3.87,2.01.97,1.34,1.46,3.28,1.46,5.81,0,.78-.07,1.57-.22,2.37-.15.8-.47,1.92-.99,3.36-.51,1.44-1.24,3.3-2.19,5.59-.95,2.29-2.23,5.28-3.83,8.98l-1.1,2.56c-.58,1.41-.83,2.59-.73,3.54.1.95.54,1.42,1.31,1.42.44,0,1.02-.19,1.75-.58.73-.39,1.61-1.06,2.63-2.01s2.21-2.23,3.58-3.83c1.36-1.61,2.9-3.63,4.6-6.06l4.46-6.35,1.17.66ZM419.05,76.54c-2.09.73-4.01,1.75-5.73,3.07-1.73,1.31-3.4,3.07-5,5.26-1.61,2.19-3.24,4.87-4.89,8.03-1.66,3.17-3.48,6.94-5.48,11.32l-4.75,10.45h-8.4l4.67-10.37c1.85-4.09,3.75-7.74,5.7-10.96,1.95-3.21,4.08-6.01,6.39-8.4,2.31-2.38,4.87-4.36,7.67-5.92,2.8-1.56,5.98-2.78,9.53-3.65l.29,1.17Z"/>
      <path class="cls-1" d="M421.65,122.26c.75-2.19,1.76-4.31,3.03-6.35,1.27-2.04,2.76-3.97,4.49-5.77,1.73-1.8,3.57-3.37,5.51-4.71,1.95-1.34,3.96-2.4,6.03-3.18,2.07-.78,4.1-1.17,6.1-1.17,2.58,0,4.46.6,5.62,1.79,1.17,1.19,1.48,2.69.95,4.49-.68,2.34-2.69,4.67-6.03,7.01-3.34,2.34-7.88,4.67-13.62,7.01l-6.79,2.78-.07-1.24,6.5-2.78c3.94-1.7,7.3-3.72,10.08-6.06,2.78-2.34,4.58-4.7,5.41-7.08.44-1.27.51-2.34.22-3.21-.29-.88-1-1.31-2.12-1.31s-2.34.45-3.65,1.35c-1.32.9-2.63,2.09-3.94,3.58-1.32,1.49-2.57,3.2-3.76,5.15-1.19,1.95-2.26,3.96-3.21,6.03-.95,2.07-1.71,4.14-2.26,6.21-.56,2.07-.84,3.98-.84,5.73,0,2.19.45,3.81,1.35,4.86.9,1.05,2.25,1.57,4.05,1.57,1.31,0,2.8-.28,4.46-.84,1.66-.56,3.33-1.36,5.04-2.41,1.7-1.05,3.37-2.29,5-3.73,1.63-1.44,3.05-3.03,4.27-4.78l4.75-6.72,1.1.66-4.97,7.01c-1.41,2-3.03,3.79-4.86,5.37-1.83,1.58-3.76,2.93-5.81,4.05-2.05,1.12-4.14,1.98-6.28,2.59s-4.21.91-6.21.91c-3.51,0-6.16-.9-7.96-2.7-1.8-1.8-2.7-4.33-2.7-7.6,0-2.14.38-4.31,1.13-6.5Z"/>
      <path class="cls-1" d="M481.87,103.42c-.44,0-.94.21-1.5.62-.56.41-1.24,1.07-2.04,1.97-.8.9-1.75,2.08-2.85,3.54s-2.35,3.24-3.76,5.33l-5.62,8.25c-1.02,1.51-1.94,2.91-2.74,4.2-.8,1.29-1.5,2.56-2.08,3.8-.58,1.24-1.1,2.5-1.53,3.76-.44,1.27-.83,2.65-1.17,4.16-1.51,0-2.68-.58-3.51-1.75-.83-1.17-1.24-2.78-1.24-4.82,0-.88.04-1.7.11-2.48.07-.78.28-1.79.62-3.03.34-1.24.86-2.82,1.57-4.75.71-1.92,1.72-4.44,3.03-7.56l2.92-6.94c.78-1.8,1.25-3.05,1.42-3.76.17-.71.06-1.06-.33-1.06-.2,0-.49.13-.88.4-.39.27-.82.6-1.28.99-.46.39-.95.84-1.46,1.35-.51.51-.99,1.01-1.42,1.5l-.8-.73c1.41-1.46,2.76-2.71,4.05-3.76,1.29-1.05,2.69-1.57,4.2-1.57,1.02,0,1.84.35,2.45,1.06.61.71,1.02,1.66,1.24,2.85.22,1.19.21,2.58-.04,4.16-.24,1.58-.73,3.23-1.46,4.93l-4.31,10.15h.15l7.01-10.15c1.56-2.24,2.93-4.15,4.13-5.73,1.19-1.58,2.32-2.88,3.4-3.91,1.07-1.02,2.11-1.76,3.1-2.23,1-.46,2.08-.69,3.25-.69.83,0,1.61.1,2.34.29.73.2,1.34.44,1.83.73-1.95,4.67-3.35,9.11-4.2,13.29-.85,4.19-1.28,7.99-1.28,11.39l-.22-.29c1.41-.68,2.91-1.86,4.49-3.54,1.58-1.68,3.18-3.74,4.78-6.17l1.1.8c-1.61,2.58-3.42,4.83-5.44,6.76-2.02,1.92-3.98,3.3-5.88,4.13-1.56-2.34-2.81-4.84-3.76-7.52-.95-2.68-1.42-5.04-1.42-7.08,0-1.27.23-2.79.69-4.57.46-1.78,1.3-4,2.52-6.68l1.83.37Z"/>
      <path class="cls-1" d="M548.44,118.24c-1.98,3.31-4.15,6.31-6.49,9.01-2.34,2.7-4.83,4.98-7.44,6.82-2.62,1.85-5.33,3.27-8.14,4.26s-5.65,1.49-8.52,1.49c-1.98,0-3.84-.25-5.58-.74s-3.25-1.27-4.55-2.32c-1.3-1.05-2.3-2.37-3.02-3.97-.72-1.6-1.08-3.5-1.08-5.71,0-3.09.73-5.98,2.19-8.68,1.46-2.7,3.4-5.11,5.83-7.24,2.42-2.12,5.22-3.93,8.39-5.42s6.46-2.54,9.88-3.14l.41,1.32c-2.65.99-5.11,2.32-7.4,3.97-2.29,1.65-4.26,3.53-5.91,5.62-1.65,2.1-2.95,4.34-3.89,6.74-.94,2.4-1.41,4.81-1.41,7.24,0,1.93.29,3.54.87,4.84.58,1.3,1.34,2.33,2.27,3.1.94.77,1.98,1.32,3.14,1.65,1.16.33,2.26.5,3.31.5,2.32,0,4.66-.55,7.03-1.65,2.37-1.1,4.62-2.51,6.74-4.22,2.12-1.71,4.06-3.6,5.83-5.66,1.76-2.07,3.2-4.04,4.3-5.91,2.09-3.64,2.98-6.75,2.65-9.34-.33-2.59-1.54-4.82-3.64-6.7l5.54-3.39c2.04,2.1,2.88,4.58,2.52,7.44-.36,2.87-1.64,6.23-3.85,10.09ZM521.24,157.93c2.37-.88,4.55-2.11,6.53-3.68,1.98-1.57,3.69-3.34,5.13-5.29,1.43-1.96,2.55-4.08,3.35-6.37.8-2.29,1.2-4.62,1.2-6.99,0-3.09-.61-6.21-1.82-9.39-1.21-3.17-2.51-6.57-3.89-10.21-.5-1.27-1.05-2.81-1.65-4.63-.61-1.82-1.23-3.68-1.86-5.58-.63-1.9-1.2-3.73-1.7-5.5-.5-1.76-.86-3.17-1.08-4.22-.55-2.98-.43-5.75.37-8.31.8-2.56,2.01-4.75,3.64-6.57,1.62-1.82,3.53-3.25,5.71-4.3,2.18-1.05,4.37-1.57,6.57-1.57,1.54,0,2.94.26,4.18.79,1.24.52,2.29,1.21,3.14,2.07.85.86,1.52,1.82,1.99,2.89.47,1.08.7,2.22.7,3.43,0,1.49-.41,3.02-1.24,4.59-.83,1.57-2.01,3.1-3.56,4.59-1.54,1.49-3.43,2.94-5.66,4.34-2.23,1.41-4.78,2.74-7.65,4.01l-.5-1.24c4.08-2.15,7.29-4.69,9.63-7.61,2.34-2.92,3.51-5.95,3.51-9.1,0-2.04-.54-3.75-1.61-5.13-1.08-1.38-2.55-2.07-4.42-2.07-1.32,0-2.54.33-3.64.99-1.1.66-2.05,1.56-2.85,2.69-.8,1.13-1.43,2.41-1.9,3.84-.47,1.43-.7,2.92-.7,4.47,0,1.38.18,2.87.54,4.46.36,1.6.84,3.22,1.45,4.88.61,1.65,1.31,3.35,2.11,5.08.8,1.74,1.61,3.51,2.44,5.33.99,2.15,1.93,4.19,2.81,6.12.88,1.93,1.68,3.83,2.4,5.71.72,1.87,1.28,3.71,1.7,5.5.41,1.79.62,3.65.62,5.58,0,3.25-.61,6.35-1.82,9.3-1.21,2.95-2.89,5.62-5.04,8.02-2.15,2.4-4.66,4.48-7.52,6.24-2.87,1.76-5.95,3.06-9.26,3.89l-.33-1.08Z"/>
      <path class="cls-1" d="M594.77,110.94c4.31-6.65,14.32-20.82,17.02-23.96-4.31-.07-10.3.15-15.85,1.17-7.08,1.31-12.78,4.38-15.19,7.52.66,2.26,6.72,4.16,8.47,6.43-.58,2.78-5.7,7.38-8.62,7.38-2.05,0-3.36-2.92-3.36-6.14,0-8.62,8.25-15.7,19.94-18.48,4.46-1.1,12.56-2.05,17.9-2.12,1.75-2.26,3.21-3.94,3.87-3.94.73,0,1.46.29,2.7,1.24,1.24.95,1.83,1.9,2.05,2.56,2.99.07,6.72.51,9.5,1.1,3.58,1.46,8.62,4.16,9.79,5.48l-.37.37c-3.8-1.46-9.35-2.48-14.61-2.56-1.24,0-4.02-.07-7.09.07-4.6,5.77-8.76,11.98-14.1,19.87,2.56-.07,5.33-.07,8.11.07,5.41.15,10.88.58,13.95,1.39l-.44.51c-3,0-9.2,0-14.83.88-6.43.95-10.08,2.63-11.69,4.38-2.78,4.09-5.04,7.82-7.01,10.96-5.99,9.57-9.28,14.9-14.75,14.39-.44,1.02-.95,2.19-1.32,3.21l-1.17.51c.73-3.58,3.43-11.1,17.09-32.29Z"/>
      <path class="cls-1" d="M622.82,122.7c3.21-4.53,7.23-10.74,10.15-15.19,5.19-7.89,9.28-14.17,12.42-18.77,3.72-5.55,5.26-7.45,6.5-7.45.8,0,1.53.29,2.41.88,1.1.73,1.83,1.39,2.19,1.9.73-.88,2.7-2.92,3.14-3.29l1.39-.51c-6.72,8.91-10.59,14.54-14.24,19.87-4.67,6.94-9.64,15.12-12.49,19.87-4.24,7.01-7.23,13.66-7.09,16.8.37.66,1.1.95,1.75.95,3.65,0,9.86-7.23,12.71-11.03,3.51-4.6,6.94-9.86,8.98-13.29l.58.8c-1.97,3.29-5.33,8.47-8.84,13.08-1.97,2.63-8.98,11.61-13.88,11.61-1.97,0-3.36-1.1-4.75-3.72-.95-1.61-1.61-3.36-2.41-5.62-.29-.95-.44-1.39-.73-1.39s-.73.44-1.24,1.02c-1.46,1.75-6.06,7.01-8.47,9.71l-.37-.95c2.04-2.26,7.45-8.62,12.27-15.27Z"/>
      <path class="cls-1" d="M653.86,138.91c-5.77,0-10.3-5.92-10.3-9.79.07-3.58.88-7.74,3.51-12.2,3.58-6.14,11.18-14.24,22.35-14.24,5.19,0,10.23,6.06,10.15,9.86,0,3.36-.66,7.16-3,11.39-4.75,8.55-13.22,14.97-22.72,14.97ZM649.92,134.53c0,2.63,1.75,3.51,3.94,3.51.44,0,.88-.07,1.39-.15,3.73-1.75,9.42-9.79,13.29-16.95,3.14-5.84,4.97-11.61,4.89-14.02-.07-2.12-1.53-3.36-4.02-3.36-.51,0-1.1.07-1.39.15-2.48,1.24-6.87,5.92-12.64,15.78-3.94,6.94-5.48,12.2-5.48,15.05Z"/>
      <path class="cls-1" d="M694.62,104.36c-3.29,0-7.52,3.51-10.96,7.74-2.48,3.07-5.48,7.52-8.03,12.71l-.73-.8c2.34-4.97,5.11-9.06,7.45-11.98,3.73-4.6,8.18-9.06,13.29-8.98,3.65.58,6.87,4.67,6.94,7.01,0,2.48-2.56,5.92-7.23,13-5.04,7.6-7.09,11.03-7.16,12.93.22.66.88,1.61,2.56,1.61,3.8,0,8.03-4.02,12.86-9.71.73-1.97,2.34-4.75,5.26-9.06,3.21-4.67,6.21-9.2,7.08-11.76.22-.66.44-1.46.8-1.46.29,0,.66.22,1.24.73.8.66,1.83,1.75,2.63,2.85,1.02,1.46,1.32,2.26,1.32,3.07,0,2.19-3.43,7.23-6.36,11.61-4.75,7.23-6.57,10.3-6.65,12.12.29,1.1,1.17,1.61,2.41,1.61,4.16,0,10.52-5.19,16.44-12.49,2.12-2.56,5.92-8.4,5.92-11.03,0-1.75-3.94-4.09-6.43-6.14.44-3.14,1.61-5.26,4.53-5.26,2.63,0,5.62,2.78,5.62,7.16,0,3.51-5.99,12.86-10.3,17.82-4.67,5.41-11.1,11.25-16.73,11.25-3.73-.22-7.38-5.11-7.38-8.33v-.44c-3.8,4.38-8.25,8.76-13.37,8.76-3.8-.29-7.38-5.11-7.38-8.4,0-1.9,1.24-4.82,5.7-11.47,5.7-8.4,8.18-11.69,8.18-13.95-.37-.51-.8-.73-1.53-.73Z"/>
    </g>
    <g>
      <path class="cls-1" d="M162.67,144.13c-4.07-8.29-14.12-13.94-23.72-14.25-5.76-.42-10.99,1.51-16.52,2.18-8.96,1.32-12.9-5.04-16.5-12.95-5.12-11.96-14.51-24.81-28.02-28.15-15.33-4.57-31.44,6.15-33.6,21.78-3.32,18.06,16.75,35.35,33.73,27,7.22-3.58,12.41-12.1,11.5-19.92-.57-6.27-5.63-10.47-10.72-13.5-1.93-1.25-3.75-2.54-4.94-3.88-3.8-4.13-.03-7.35,4.84-6.4,12.56,2.5,19.45,15.87,17.19,27.96-1.44,9.69-5.8,18.35-12,25.93-2.61,2.98-5.74,6.77-9.84,7.05h-.16c-2.98.2-6.73-2.33-9.69-4.28-3.99-2.6-11.8-6.84-16.28-8.29-14.8-4.33-29.22-4.48-40.1,8.17-10.88,13.08-10.55,35.6,1.75,48.01,14.2,14.69,35.01,14.57,52.48,5.75,8.1-4.01,12.7-11.4,18.04-18.35,3.27-4.4,7.33-6.06,11.84-1.82,4.48,3.86,13.84,11.55,19.61,7.58,1.8-2.42-2.16-5.59-4.28-6.84-7.65-4.12-17.28-8.03-16.25-17.97.68-4.44,2.23-8.86,3.71-13.1,2.27-7.99,4.18-16.29,5.73-24.34,2.3-9.45,3.66-.23,3.72,3.6.47,12.35,3.26,33.2,15.97,42.97,11.65,10,29.54,8.24,39-4.71,6.39-7.97,8.55-20.51,3.52-29.21ZM56.77,186.88c-5.43,10.64-18.45,14.87-29.1,9.44-10.64-5.43-14.87-18.45-9.44-29.1,5.43-10.64,18.45-14.87,29.1-9.44,10.64,5.43,18.38,11.56,9.44,29.1ZM155.36,164.71c-4.48,8.8-15.25,12.29-24.05,7.8-8.8-4.49-15.39-16.83-10.9-25.63,4.48-8.8,18.35-10.71,27.14-6.22,8.8,4.49,12.29,15.25,7.8,24.05Z"/>
      <path class="cls-1" d="M195.93,11.82c-14.2-14.68-35.01-14.57-52.49-5.75-8.1,4.01-12.7,11.4-18.04,18.35-3.27,4.39-7.33,6.06-11.84,1.82-4.48-3.86-13.84-11.55-19.61-7.58-1.79,2.42,2.16,5.59,4.28,6.84,7.65,4.12,17.28,8.03,16.24,17.97-.68,4.44-2.23,8.86-3.71,13.1-2.27,7.99-4.18,16.29-5.73,24.34-2.3,9.45-3.66.23-3.72-3.6-.47-12.35-3.26-33.2-15.97-42.97-11.65-10-29.54-8.23-39,4.71-6.39,7.97-8.55,20.51-3.52,29.21,4.07,8.29,14.12,13.94,23.72,14.25,5.76.42,10.99-1.51,16.52-2.18,8.96-1.32,12.9,5.04,16.5,12.95,5.12,11.96,14.51,24.81,28.02,28.15,15.33,4.57,31.44-6.15,33.6-21.78,3.32-18.06-16.75-35.35-33.73-27-7.21,3.58-12.41,12.1-11.5,19.92.57,6.27,5.63,10.47,10.72,13.5,1.93,1.25,3.75,2.54,4.94,3.88,3.8,4.13.03,7.35-4.84,6.4-12.56-2.5-19.45-15.87-17.19-27.96,1.44-9.69,5.8-18.35,12-25.93,2.61-2.98,5.74-6.78,9.84-7.05h.16c2.98-.2,6.73,2.33,9.69,4.28,3.99,2.6,11.8,6.84,16.28,8.29,14.8,4.33,29.22,4.48,40.1-8.17,10.88-13.08,10.55-35.6-1.75-48.01ZM87.1,64.22c-4.68,9.17-19.13,11.17-28.3,6.49-9.17-4.68-12.81-15.9-8.14-25.07,4.68-9.17,15.9-12.81,25.07-8.14,9.17,4.68,16.04,17.55,11.36,26.71ZM187.27,45.17c-5.43,10.64-18.45,14.87-29.1,9.44-10.64-5.43-18.38-11.56-9.44-29.1,5.43-10.64,18.45-14.87,29.1-9.44,10.64,5.43,14.87,18.45,9.44,29.1Z"/>
    </g>
  </g>
</svg>